<?xml version="1.0" standalone="no"?>
<!DOCTYPE svg PUBLIC "-//W3C//DTD SVG 20010904//EN"
 "http://www.w3.org/TR/2001/REC-SVG-20010904/DTD/svg10.dtd">
<svg version="1.0" xmlns="http://www.w3.org/2000/svg"
 width="300.000000pt" height="300.000000pt" viewBox="0 0 300.000000 300.000000"
 preserveAspectRatio="xMidYMid meet">

<g transform="translate(0.000000,300.000000) scale(0.100000,-0.100000)"
fill="#000000" stroke="none">
<path d="M409 2414 c-20 -22 -24 -35 -23 -85 1 -42 -2 -59 -12 -59 -7 0 -22
-12 -34 -27 -20 -25 -22 -36 -17 -113 6 -102 30 -170 93 -266 90 -135 209
-237 374 -319 41 -21 76 -38 77 -39 1 -1 -5 -21 -13 -45 -11 -33 -12 -51 -4
-82 14 -51 71 -115 117 -130 35 -11 35 -11 29 -59 -13 -101 -36 -153 -87 -203
-68 -65 -66 -82 19 -166 45 -44 90 -77 137 -99 39 -19 77 -38 86 -42 41 -21
238 -72 331 -85 57 -9 180 -18 273 -21 400 -15 690 53 908 213 57 42 144 143
153 177 7 29 -9 63 -35 71 -22 7 -27 20 -75 170 -88 276 -252 498 -454 617
-23 13 -56 46 -73 71 -88 133 -244 216 -472 253 -184 29 -327 81 -467 167 -80
50 -117 58 -143 29 -45 -50 -4 -126 122 -224 l35 -26 -60 13 c-144 32 -365
131 -514 230 -167 111 -225 128 -271 79z m191 -99 c187 -125 365 -197 725
-290 77 -20 163 -47 191 -59 78 -37 142 -114 199 -242 113 -255 183 -340 388
-475 67 -45 130 -88 139 -97 31 -27 21 -79 -25 -129 -15 -18 -32 -23 -66 -23
-43 0 -49 4 -101 60 -31 33 -59 57 -63 54 -4 -4 -7 -20 -7 -35 0 -48 -20 -79
-51 -79 -38 0 -50 25 -39 76 19 78 4 74 -39 -11 -46 -91 -116 -167 -150 -163
-14 2 -27 10 -29 18 -1 8 26 66 62 128 35 62 60 114 56 117 -5 3 -17 -7 -27
-21 -45 -67 -146 -162 -209 -197 -77 -43 -90 -45 -121 -15 -49 46 -26 81 108
163 103 63 126 81 116 91 -3 3 -36 -13 -73 -36 -125 -79 -189 -103 -290 -108
-90 -5 -91 -4 -127 27 -19 18 -39 46 -42 63 -13 55 9 65 216 98 101 16 200 37
219 47 49 23 20 27 -65 8 -247 -56 -461 -37 -560 48 -32 28 -38 40 -42 83 -4
39 -1 54 12 67 21 21 85 22 151 2 116 -35 314 -42 314 -11 0 9 -34 15 -122 19
-308 15 -605 153 -776 360 -95 114 -150 295 -108 353 14 18 16 17 53 -26 69
-81 227 -236 283 -276 170 -124 351 -185 547 -185 62 0 117 2 123 6 27 16 0
23 -117 28 -106 4 -144 10 -223 36 -186 60 -311 139 -442 280 -98 105 -148
191 -148 251 0 46 13 70 36 70 7 0 62 -34 124 -75z m634 -49 c151 -89 304
-143 476 -166 98 -13 182 -39 261 -81 58 -31 158 -113 149 -122 -3 -3 -50 6
-105 19 -83 20 -122 24 -227 23 -125 -2 -127 -2 -160 26 -41 35 -115 68 -188
85 -82 19 -194 93 -278 184 -40 44 -50 65 -35 79 10 11 11 10 107 -47z"/>
</g>
</svg>
